<svg width="31" height="31" viewBox="0 0 31 31" fill="none" xmlns="http://www.w3.org/2000/svg">
<path d="M18.3181 11.4158C18.3017 11.2757 18.2084 11.1646 18.094 11.0891L10.8284 6.89427C10.7 6.83802 10.549 6.81083 10.4169 6.87552C10.3559 6.87083 3.15124 11.0694 3.09405 11.0891C3.05514 11.1219 3.01108 11.1505 2.97827 11.1908C2.89905 11.2724 2.8728 11.3854 2.85967 11.4951V19.8847C2.85967 19.967 2.88133 20.0479 2.92248 20.1191C2.96362 20.1904 3.02279 20.2495 3.09405 20.2907L10.3597 24.4855C10.4333 24.5183 10.5125 24.5483 10.594 24.5479C10.6756 24.5483 10.7548 24.5179 10.8284 24.4855L18.094 20.2907C18.6219 19.979 18.1587 19.1755 17.6253 19.4788L11.0628 23.2677V15.9608C12.6336 15.0519 15.8295 13.2093 17.3909 12.3069V17.541C17.3909 17.6653 17.4403 17.7845 17.5282 17.8724C17.6161 17.9604 17.7354 18.0097 17.8597 18.0097C17.984 18.0097 18.1032 17.9604 18.1911 17.8724C18.279 17.7845 18.3284 17.6653 18.3284 17.541V11.4951C18.3256 11.4684 18.3221 11.4423 18.3181 11.4158ZM14.2269 13.0508L7.89874 9.3974L10.594 7.84162L16.9222 11.4951L14.2269 13.0508ZM10.594 15.1485L4.26592 11.4951L6.96124 9.9388L13.2894 13.5922L10.594 15.1485ZM3.79717 12.3069L10.1253 15.9608V23.2677L3.79717 19.6143V12.3069ZM23.9534 5.3774H25.4262C25.9887 7.48068 29.082 7.09677 29.1097 4.90865C29.0815 2.72146 25.9887 2.33615 25.4262 4.4399H23.9534C23.1781 4.4399 22.5472 5.07083 22.5472 5.84615V15.2211H20.2034C20.0791 15.2211 19.9599 15.2705 19.872 15.3584C19.7841 15.4463 19.7347 15.5656 19.7347 15.6899C19.7347 15.8142 19.7841 15.9334 19.872 16.0214C19.9599 16.1093 20.0791 16.1586 20.2034 16.1586H22.5472V25.5336C22.5472 26.309 23.1781 26.9399 23.9534 26.9399H25.4262C25.9836 29.0333 29.0806 28.6686 29.1097 26.4711C29.0778 24.2727 25.9864 23.9076 25.4262 26.0024H23.9534C23.8291 26.0024 23.7099 25.953 23.622 25.8651C23.5341 25.7772 23.4847 25.658 23.4847 25.5336V16.1586H25.4262C25.6358 16.9649 26.3637 17.5649 27.2347 17.5649C29.7111 17.4871 29.7134 13.8932 27.2347 13.8149C26.3633 13.8149 25.6358 14.4149 25.4262 15.2211H23.4847V5.84615C23.4847 5.72183 23.5341 5.6026 23.622 5.51469C23.7099 5.42678 23.8291 5.3774 23.9534 5.3774ZM27.2347 3.97115C28.4708 4.00396 28.4708 5.81333 27.2347 5.84615C25.9986 5.81333 25.9986 4.00396 27.2347 3.97115ZM27.2347 25.5336C28.4708 25.5665 28.4708 27.3758 27.2347 27.4086C25.9986 27.3758 25.9986 25.5665 27.2347 25.5336ZM27.2347 14.7524C28.4708 14.7852 28.4708 16.5946 27.2347 16.6274C25.9986 16.5946 25.9986 14.7852 27.2347 14.7524Z" fill="#154452"/>
</svg>
