<svg width="31" height="31" viewBox="0 0 31 31" fill="none" xmlns="http://www.w3.org/2000/svg">
<path d="M18.3181 11.4153C18.3017 11.2752 18.2084 11.1641 18.094 11.0886L10.8284 6.89378C10.7 6.83753 10.549 6.81035 10.4169 6.87503C10.3559 6.87035 3.15124 11.0689 3.09405 11.0886C3.05514 11.1214 3.01108 11.15 2.97827 11.1903C2.89905 11.2719 2.8728 11.3849 2.85967 11.4946V19.8843C2.85967 19.9665 2.88133 20.0474 2.92248 20.1186C2.96362 20.1899 3.02279 20.249 3.09405 20.2902L10.3597 24.485C10.4333 24.5178 10.5125 24.5478 10.594 24.5474C10.6756 24.5478 10.7548 24.5174 10.8284 24.485L18.094 20.2902C18.6219 19.9785 18.1587 19.175 17.6253 19.4783L11.0628 23.2672V15.9603C12.6336 15.0514 15.8295 13.2088 17.3909 12.3064V17.5405C17.3909 17.6648 17.4403 17.784 17.5282 17.872C17.6161 17.9599 17.7354 18.0093 17.8597 18.0093C17.984 18.0093 18.1032 17.9599 18.1911 17.872C18.279 17.784 18.3284 17.6648 18.3284 17.5405V11.4946C18.3256 11.4679 18.3221 11.4418 18.3181 11.4153ZM14.2269 13.0503L7.89874 9.39691L10.594 7.84113L16.9222 11.4946L14.2269 13.0503ZM10.594 15.148L4.26592 11.4946L6.96124 9.93831L13.2894 13.5918L10.594 15.148ZM3.79717 12.3064L10.1253 15.9603V23.2672L3.79717 19.6138V12.3064ZM23.9534 5.37691H25.4262C25.9887 7.48019 29.082 7.09628 29.1097 4.90816C29.0815 2.72097 25.9887 2.33566 25.4262 4.43941H23.9534C23.1781 4.43941 22.5472 5.07035 22.5472 5.84566V15.2207H20.2034C20.0791 15.2207 19.9599 15.27 19.872 15.358C19.7841 15.4459 19.7347 15.5651 19.7347 15.6894C19.7347 15.8137 19.7841 15.933 19.872 16.0209C19.9599 16.1088 20.0791 16.1582 20.2034 16.1582H22.5472V25.5332C22.5472 26.3085 23.1781 26.9394 23.9534 26.9394H25.4262C25.9836 29.0328 29.0806 28.6682 29.1097 26.4707C29.0778 24.2722 25.9864 23.9071 25.4262 26.0019H23.9534C23.8291 26.0019 23.7099 25.9525 23.622 25.8646C23.5341 25.7767 23.4847 25.6575 23.4847 25.5332V16.1582H25.4262C25.6358 16.9644 26.3637 17.5644 27.2347 17.5644C29.7111 17.4866 29.7134 13.8927 27.2347 13.8144C26.3633 13.8144 25.6358 14.4144 25.4262 15.2207H23.4847V5.84566C23.4847 5.72134 23.5341 5.60211 23.622 5.5142C23.7099 5.42629 23.8291 5.37691 23.9534 5.37691ZM27.2347 3.97066C28.4708 4.00347 28.4708 5.81285 27.2347 5.84566C25.9986 5.81285 25.9986 4.00347 27.2347 3.97066ZM27.2347 25.5332C28.4708 25.566 28.4708 27.3753 27.2347 27.4082C25.9986 27.3753 25.9986 25.566 27.2347 25.5332ZM27.2347 14.7519C28.4708 14.7847 28.4708 16.5941 27.2347 16.6269C25.9986 16.5941 25.9986 14.7847 27.2347 14.7519Z" fill="white"/>
</svg>
