<svg width="31" height="35" viewBox="0 0 31 35" fill="none" xmlns="http://www.w3.org/2000/svg">
<path d="M15.3175 19.8994C13.7376 19.8995 12.2863 20.6938 11.4346 22.0244C10.9589 22.7678 10.7081 23.6273 10.7081 24.5098V25.9668H21.3487V24.5098L21.337 24.1807C21.2825 23.4153 21.038 22.6734 20.6221 22.0244H20.6212C19.7694 20.6939 18.3182 19.8994 16.7384 19.8994H15.3175ZM14.668 8.8418L14.6534 8.9043L14.5948 8.92871L12.5333 9.7832L12.4747 9.80762L12.42 9.77441L10.6583 8.68848L9.47273 9.87402L10.5587 11.6357L10.5919 11.6904L10.5675 11.749L9.71297 13.8105L9.68855 13.8691L9.62605 13.8838L7.61433 14.3623V16.0371L9.62605 16.5166L9.68855 16.5312L9.71297 16.5908L10.5675 18.6514L10.5919 18.7109L10.5587 18.7646L9.48152 20.5146L10.1456 21.1514C10.8688 20.0373 11.9087 19.2084 13.1075 18.75C12.1691 17.9331 11.5743 16.7302 11.5743 15.3906C11.5745 12.9347 13.5724 10.9365 16.0284 10.9365C18.4843 10.9366 20.4823 12.9347 20.4825 15.3906C20.4825 16.7304 19.8869 17.933 18.9483 18.75C20.1539 19.2109 21.1982 20.0465 21.922 21.1699L22.5059 20.5439L21.4112 18.7646L21.377 18.7109L21.4014 18.6514L22.2569 16.5908L22.2813 16.5312L22.3428 16.5166L24.3546 16.0371V14.3623L22.3428 13.8838L22.2813 13.8691L22.2569 13.8105L21.4014 11.749L21.377 11.6904L21.4112 11.6357L22.4952 9.87305L21.3106 8.68945L19.5489 9.77441L19.4952 9.80762L19.4356 9.7832L17.3751 8.92871L17.3155 8.9043L17.3009 8.8418L16.8214 6.83008H15.1475L14.668 8.8418ZM16.0284 12.4941C14.4311 12.4941 13.1311 13.7934 13.1309 15.3906C13.1309 16.9881 14.431 18.2881 16.0284 18.2881C17.6258 18.288 18.9259 16.988 18.9259 15.3906C18.9256 13.7934 17.6256 12.4942 16.0284 12.4941ZM25.9112 17.2676L25.8155 17.29L23.5011 17.8398C23.4043 18.1149 23.2934 18.3847 23.1671 18.6475L24.4044 20.6592L24.4542 20.7402L24.3897 20.8096L22.63 22.6934C22.8105 23.2785 22.9053 23.8895 22.9053 24.5098V27.5234H9.15047V24.5098C9.15029 23.8733 9.24902 23.2408 9.44246 22.6348L7.56941 20.8398L7.49617 20.7695L7.5489 20.6836L8.80183 18.6475C8.67557 18.3849 8.56353 18.1157 8.46687 17.8408L6.1534 17.29L6.05769 17.2676V13.1338L6.1534 13.1104L8.46687 12.5586C8.56357 12.2837 8.67554 12.0145 8.80183 11.752L7.55574 9.72656L7.50398 9.64258L10.4268 6.71973L10.5108 6.77148L12.5362 8.01758C12.7988 7.89127 13.068 7.77931 13.3428 7.68262L13.8946 5.36914L13.918 5.27344H18.0518L18.0743 5.36914L18.6251 7.68262C18.9 7.77927 19.1691 7.89131 19.4317 8.01758L21.4581 6.77148L21.5421 6.71973L21.6124 6.78906L24.3956 9.57324L24.4659 9.64258L24.4141 9.72656L23.1661 11.7529C23.2924 12.0156 23.4044 12.2847 23.5011 12.5596L25.8155 13.1104L25.9112 13.1338V17.2676Z" fill="#154452" stroke="#154452" stroke-width="0.25"/>
</svg>
