<svg width="31" height="31" viewBox="0 0 31 31" fill="none" xmlns="http://www.w3.org/2000/svg">
<path d="M8.48467 5.35449C6.82782 5.35449 5.48467 6.69764 5.48467 8.35449V11.3545C5.48467 13.0113 6.82782 14.3545 8.48467 14.3545H11.4847C13.1415 14.3545 14.4847 13.0113 14.4847 11.3545V8.35449C14.4847 6.69764 13.1415 5.35449 11.4847 5.35449H8.48467Z" fill="#FDFDFD"/>
<path d="M8.48467 17.3545C6.82782 17.3545 5.48467 18.6976 5.48467 20.3545V23.3545C5.48467 25.0113 6.82782 26.3545 8.48467 26.3545H11.4847C13.1415 26.3545 14.4847 25.0113 14.4847 23.3545V20.3545C14.4847 18.6976 13.1415 17.3545 11.4847 17.3545H8.48467Z" fill="#FDFDFD"/>
<path d="M17.4847 8.35449C17.4847 6.69764 18.8278 5.35449 20.4847 5.35449H23.4847C25.1415 5.35449 26.4847 6.69764 26.4847 8.35449V11.3545C26.4847 13.0113 25.1415 14.3545 23.4847 14.3545H20.4847C18.8278 14.3545 17.4847 13.0113 17.4847 11.3545V8.35449Z" fill="#FDFDFD"/>
<path d="M17.4847 20.3545C17.4847 18.6976 18.8278 17.3545 20.4847 17.3545H23.4847C25.1415 17.3545 26.4847 18.6976 26.4847 20.3545V23.3545C26.4847 25.0113 25.1415 26.3545 23.4847 26.3545H20.4847C18.8278 26.3545 17.4847 25.0113 17.4847 23.3545V20.3545Z" fill="#FDFDFD"/>
</svg>
