<svg width="31" height="31" viewBox="0 0 31 31" fill="none" xmlns="http://www.w3.org/2000/svg">
<g clip-path="url(#clip0_1068_1479)">
<path d="M25.8106 18.3158L20.5281 21.3926C20.2633 21.5468 19.994 21.6558 19.7129 21.7207C19.8171 21.5537 19.8987 21.3648 19.9547 21.1556C20.2247 20.1477 19.6257 19.0955 18.5909 18.76C18.5708 18.7535 18.5503 18.7483 18.5296 18.7446C17.0114 18.4708 15.5129 17.929 14.3088 17.4937C13.8905 17.3425 13.4955 17.1996 13.1596 17.0908C11.8073 16.652 10.5846 17.1952 9.56702 17.7843L5.6369 20.0597L5.26635 19.405C5.10282 19.116 4.83569 18.9078 4.51424 18.8187C4.19291 18.7295 3.85664 18.7705 3.5676 18.9341L2.08547 19.773C1.79637 19.9366 1.58813 20.2037 1.49901 20.5251C1.40989 20.8466 1.45096 21.1828 1.61456 21.4718L5.972 29.1711C6.13553 29.4601 6.40266 29.6683 6.72411 29.7575C6.83526 29.7883 6.94817 29.8035 7.06032 29.8035C7.27243 29.8035 7.48166 29.749 7.67075 29.642L9.15293 28.8031C9.44198 28.6396 9.65016 28.3725 9.73928 28.051C9.8284 27.7296 9.78733 27.3934 9.62373 27.1044L9.1745 26.3106L10.0704 25.7933L16.8362 27.6062C17.2183 27.7087 17.5934 27.7598 17.9605 27.7598C18.6922 27.7598 19.3917 27.5565 20.05 27.1512L29.6365 21.2482C30.5104 20.7102 30.7876 19.3542 30.2181 18.4033C29.9416 17.9417 28.8068 16.5709 25.8106 18.3158ZM8.83588 27.8006C8.82529 27.8397 8.80705 27.8764 8.78221 27.9084C8.75737 27.9404 8.72642 27.9672 8.69116 27.9872L7.20897 28.8261C7.06336 28.9086 6.87047 28.8552 6.7878 28.7093L2.43041 21.0101C2.41049 20.9748 2.39776 20.9359 2.39296 20.8956C2.38817 20.8554 2.3914 20.8146 2.40247 20.7756C2.41304 20.7364 2.43128 20.6998 2.45613 20.6678C2.48097 20.6357 2.51192 20.6089 2.54719 20.5889L4.02932 19.7501C4.0751 19.7242 4.12682 19.7106 4.17944 19.7106C4.2075 19.7106 4.23586 19.7144 4.26381 19.7222C4.30294 19.7328 4.33959 19.751 4.37163 19.7759C4.40367 19.8007 4.43048 19.8316 4.45049 19.8669L8.80793 27.5662C8.82785 27.6015 8.84058 27.6404 8.84538 27.6806C8.85018 27.7208 8.84695 27.7616 8.83588 27.8006ZM29.1449 20.45L19.5584 26.3529C18.7982 26.821 17.964 26.938 17.0789 26.7007L10.1255 24.8375C10.0055 24.8054 9.87755 24.8223 9.76987 24.8843L8.71278 25.4946L6.09868 20.8757L10.0368 18.5956C10.9177 18.0855 11.8708 17.6583 12.8703 17.9825C13.1914 18.0866 13.5615 18.2205 13.99 18.3754C15.2185 18.8195 16.7452 19.3715 18.3293 19.6611C18.8813 19.8539 19.19 20.3872 19.0491 20.913C18.8637 21.6047 18.2872 21.6906 17.829 21.638C17.0508 21.478 16.3114 21.267 15.529 21.0436C15.1581 20.9376 14.7744 20.8281 14.3801 20.7224C14.1303 20.6556 13.8731 20.8039 13.806 21.0539C13.7901 21.1133 13.786 21.1754 13.7941 21.2364C13.8021 21.2974 13.8221 21.3563 13.8529 21.4096C13.8836 21.4629 13.9246 21.5096 13.9735 21.5471C14.0223 21.5846 14.078 21.6121 14.1375 21.628C14.5244 21.7316 14.9043 21.8402 15.2716 21.945C16.0779 22.1753 16.8395 22.3928 17.6596 22.5604C17.6627 22.5611 17.6658 22.5613 17.669 22.5619C17.6722 22.5624 17.6751 22.5633 17.6783 22.5638L18.3352 22.6707C19.3174 22.8279 20.1893 22.6748 20.9999 22.2027L26.2825 19.1259C27.803 18.2402 28.9737 18.1502 29.4138 18.885C29.7171 19.3915 29.5814 20.1812 29.1449 20.45ZM4.45934 21.2371C4.46939 21.3059 4.4658 21.3759 4.44878 21.4433C4.43175 21.5107 4.40162 21.5741 4.36011 21.6298C4.31859 21.6855 4.26651 21.7325 4.20682 21.7681C4.14714 21.8037 4.08103 21.8272 4.01227 21.8373C3.94351 21.8473 3.87344 21.8438 3.80606 21.8267C3.73868 21.8097 3.67532 21.7796 3.61959 21.7381C3.56386 21.6965 3.51685 21.6445 3.48125 21.5848C3.44565 21.5251 3.42215 21.459 3.41209 21.3902C3.39338 21.2521 3.42992 21.1122 3.51378 21.0008C3.59764 20.8895 3.72204 20.8157 3.85997 20.7955C3.99789 20.7754 4.1382 20.8104 4.25043 20.8931C4.36265 20.9758 4.43772 21.0994 4.45934 21.2371ZM30.5159 3.90309V3.01076C30.5159 2.08211 29.7604 1.32654 28.8318 1.32654H21.1924C20.2637 1.32654 19.5082 2.08211 19.5082 3.01076V3.90309C19.5082 4.38045 19.7082 4.81176 20.0283 5.11856C19.7082 5.42529 19.5082 5.8566 19.5082 6.33397V7.22629C19.5082 7.29309 19.5124 7.35977 19.5204 7.42598C17.0676 7.98022 15.2303 10.1768 15.2303 12.7947C15.2303 15.8296 17.6994 18.2986 20.7342 18.2986C22.7631 18.2986 24.5388 17.195 25.4933 15.5568H28.8318C29.7604 15.5568 30.5159 14.8013 30.5159 13.8726V12.9803C30.5159 12.5029 30.3159 12.0716 29.9958 11.7648C30.3159 11.4581 30.5159 11.0268 30.5159 10.5494V9.65711C30.5159 9.17975 30.3159 8.7485 29.9958 8.4417C30.3159 8.13496 30.5159 7.70365 30.5159 7.22629V6.33397C30.5159 5.8566 30.3159 5.42535 29.9958 5.11856C30.3159 4.81176 30.5159 4.38045 30.5159 3.90309ZM20.7342 17.3611C18.2163 17.3611 16.1678 15.3126 16.1678 12.7947C16.1678 10.2767 18.2163 8.2283 20.7342 8.2283C23.2522 8.2283 25.3006 10.2767 25.3006 12.7947C25.3006 15.3126 23.2521 17.3611 20.7342 17.3611ZM29.5784 12.9803V13.8726C29.5784 14.2843 29.2434 14.6192 28.8318 14.6192H25.9268C26.1333 14.0331 26.2385 13.4161 26.2381 12.7947C26.2381 12.6053 26.2284 12.4181 26.2096 12.2335H28.8317C29.2434 12.2335 29.5784 12.5685 29.5784 12.9803ZM29.5784 9.65705V10.5494C29.5784 10.9611 29.2434 11.296 28.8318 11.296H26.0306C25.7718 10.3826 25.2825 9.565 24.6298 8.91039H28.8318C29.2434 8.91045 29.5784 9.24537 29.5784 9.65705ZM29.5784 6.33391V7.22623C29.5784 7.63797 29.2434 7.97289 28.8318 7.97289H23.3856C22.5987 7.53842 21.6949 7.29074 20.7342 7.29074C20.639 7.29074 20.5441 7.2932 20.45 7.29801C20.4474 7.27417 20.446 7.25021 20.4457 7.22623V6.33391C20.4457 5.92223 20.7807 5.58725 21.1924 5.58725H28.8318C29.2434 5.58725 29.5784 5.92223 29.5784 6.33391ZM21.1924 4.64975C20.7807 4.64975 20.4457 4.31477 20.4457 3.90303V3.01076C20.4457 2.59902 20.7807 2.26404 21.1924 2.26404H28.8318C29.2434 2.26404 29.5784 2.59902 29.5784 3.01076V3.90309C29.5784 4.31482 29.2434 4.64981 28.8318 4.64981L21.1924 4.64975ZM22.806 13.9168C22.8582 14.3468 22.7422 14.74 22.4707 15.0539C22.1842 15.3851 21.7266 15.6152 21.2029 15.701V15.9809C21.2029 16.1052 21.1535 16.2244 21.0656 16.3124C20.9777 16.4003 20.8585 16.4496 20.7342 16.4496C20.6098 16.4496 20.4906 16.4003 20.4027 16.3124C20.3148 16.2244 20.2654 16.1052 20.2654 15.9809V15.6935C19.4652 15.5409 18.8498 15.0078 18.664 14.2625C18.6346 14.1421 18.6541 14.0149 18.7182 13.9088C18.7823 13.8027 18.8858 13.7263 19.006 13.6963C19.1263 13.6664 19.2536 13.6852 19.36 13.7488C19.4663 13.8125 19.5432 13.9156 19.5737 14.0358C19.7189 14.6179 20.319 14.8102 20.7887 14.8001C21.1993 14.7903 21.5811 14.6492 21.7615 14.4406C21.8594 14.3274 21.8955 14.197 21.8752 14.0298C21.8411 13.7488 21.6724 13.4048 20.6627 13.2391C19.1912 12.9974 18.8476 12.2324 18.8185 11.6331C18.7782 10.804 19.353 10.1104 20.2487 9.90719L20.2653 9.9035V9.60842C20.2653 9.4841 20.3147 9.36487 20.4026 9.27696C20.4905 9.18905 20.6097 9.13967 20.734 9.13967C20.8584 9.13967 20.9776 9.18905 21.0655 9.27696C21.1534 9.36487 21.2028 9.4841 21.2028 9.60842V9.89934C21.7918 10.021 22.3564 10.3876 22.6486 11.0836C22.6967 11.1982 22.6974 11.3272 22.6503 11.4423C22.6033 11.5574 22.5125 11.6491 22.3979 11.6972C22.2833 11.7454 22.1542 11.746 22.0392 11.699C21.9241 11.6519 21.8324 11.5611 21.7842 11.4465C21.5388 10.8622 20.9405 10.7117 20.456 10.8214C20.103 10.9015 19.7334 11.1449 19.7548 11.5875C19.7622 11.7398 19.7819 12.1444 20.8146 12.3139C22.0311 12.5137 22.701 13.0529 22.806 13.9168ZM10.8541 5.19379H11.757V10.9911C11.757 11.1154 11.8063 11.2347 11.8943 11.3226C11.9822 11.4105 12.1014 11.4599 12.2257 11.4599H14.1237C14.2481 11.4599 14.3673 11.4105 14.4552 11.3226C14.5431 11.2347 14.5925 11.1154 14.5925 10.9911V5.19379H15.4953C15.58 5.19377 15.663 5.17083 15.7357 5.12741C15.8084 5.08398 15.8679 5.02169 15.908 4.94715C15.9481 4.8726 15.9673 4.78859 15.9635 4.70402C15.9598 4.61945 15.9331 4.53748 15.8865 4.46682L13.566 0.951133C13.5232 0.886455 13.4651 0.833381 13.3969 0.796662C13.3286 0.759942 13.2523 0.740723 13.1748 0.740723C13.0972 0.740723 13.0209 0.759942 12.9526 0.796662C12.8844 0.833381 12.8263 0.886455 12.7835 0.951133L10.463 4.46682C10.4164 4.53748 10.3897 4.61944 10.386 4.704C10.3822 4.78857 10.4013 4.87258 10.4415 4.94712C10.4816 5.02167 10.5411 5.08396 10.6138 5.12739C10.6864 5.17082 10.7695 5.19376 10.8541 5.19379ZM13.1748 2.06025L14.6242 4.25629H14.1237C13.9994 4.25629 13.8802 4.30568 13.7923 4.39358C13.7044 4.48149 13.655 4.60072 13.655 4.72504V10.5224H12.6945V4.72504C12.6945 4.60072 12.6451 4.48149 12.5572 4.39358C12.4693 4.30568 12.35 4.25629 12.2257 4.25629H11.7252L13.1748 2.06025Z" fill="#154452"/>
</g>
<defs>
<clipPath id="clip0_1068_1479">
<rect width="30" height="30" fill="white" transform="translate(0.984673 0.271973)"/>
</clipPath>
</defs>
</svg>
