<svg width="30" height="30" viewBox="0 0 30 30" fill="none" xmlns="http://www.w3.org/2000/svg">
<path d="M24.8106 18.3163L19.5281 21.3931C19.2633 21.5473 18.994 21.6563 18.7129 21.7212C18.8171 21.5542 18.8987 21.3653 18.9547 21.1561C19.2247 20.1482 18.6257 19.0959 17.5909 18.7605C17.5708 18.754 17.5503 18.7488 17.5296 18.7451C16.0114 18.4713 14.5129 17.9295 13.3088 17.4942C12.8905 17.343 12.4955 17.2001 12.1596 17.0913C10.8073 16.6525 9.58461 17.1957 8.56702 17.7848L4.6369 20.0602L4.26635 19.4055C4.10282 19.1164 3.83569 18.9083 3.51424 18.8191C3.19291 18.73 2.85664 18.771 2.5676 18.9346L1.08547 19.7735C0.796371 19.9371 0.588129 20.2042 0.499008 20.5256C0.409887 20.8471 0.450961 21.1833 0.614555 21.4723L4.972 29.1716C5.13553 29.4606 5.40266 29.6688 5.72411 29.7579C5.83526 29.7888 5.94817 29.804 6.06032 29.804C6.27243 29.804 6.48166 29.7495 6.67075 29.6425L8.15293 28.8036C8.44198 28.64 8.65016 28.373 8.73928 28.0515C8.8284 27.7301 8.78733 27.3939 8.62373 27.1049L8.1745 26.3111L9.07039 25.7938L15.8362 27.6067C16.2183 27.7092 16.5934 27.7603 16.9605 27.7603C17.6922 27.7603 18.3917 27.557 19.05 27.1517L28.6365 21.2487C29.5104 20.7107 29.7876 19.3547 29.2181 18.4038C28.9416 17.9422 27.8068 16.5714 24.8106 18.3163ZM7.83588 27.8011C7.82529 27.8402 7.80705 27.8769 7.78221 27.9089C7.75737 27.9409 7.72642 27.9677 7.69116 27.9877L6.20897 28.8265C6.06336 28.9091 5.87047 28.8557 5.7878 28.7098L1.43041 21.0105C1.41049 20.9752 1.39776 20.9363 1.39296 20.8961C1.38817 20.8559 1.3914 20.815 1.40247 20.7761C1.41304 20.7369 1.43128 20.7003 1.45613 20.6682C1.48097 20.6362 1.51192 20.6094 1.54719 20.5894L3.02932 19.7506C3.0751 19.7247 3.12682 19.7111 3.17944 19.7111C3.2075 19.7111 3.23586 19.7149 3.26381 19.7227C3.30294 19.7333 3.33959 19.7515 3.37163 19.7764C3.40367 19.8012 3.43048 19.8321 3.45049 19.8674L7.80793 27.5667C7.82785 27.602 7.84058 27.6409 7.84538 27.6811C7.85018 27.7213 7.84695 27.7621 7.83588 27.8011ZM28.1449 20.4504L18.5584 26.3534C17.7982 26.8215 16.964 26.9385 16.0789 26.7012L9.12553 24.838C9.00545 24.8059 8.87755 24.8228 8.76987 24.8848L7.71278 25.4951L5.09868 20.8762L9.03676 18.5961C9.91766 18.086 10.8708 17.6588 11.8703 17.983C12.1914 18.0871 12.5615 18.221 12.99 18.3759C14.2185 18.82 15.7452 19.372 17.3293 19.6615C17.8813 19.8544 18.19 20.3877 18.0491 20.9135C17.8637 21.6052 17.2872 21.6911 16.829 21.6385C16.0508 21.4785 15.3114 21.2675 14.529 21.0441C14.1581 20.9381 13.7744 20.8286 13.3801 20.7229C13.1303 20.6561 12.8731 20.8044 12.806 21.0544C12.7901 21.1138 12.786 21.1759 12.7941 21.2369C12.8021 21.2979 12.8221 21.3568 12.8529 21.4101C12.8836 21.4634 12.9246 21.5101 12.9735 21.5476C13.0223 21.5851 13.078 21.6125 13.1375 21.6285C13.5244 21.7321 13.9043 21.8406 14.2716 21.9455C15.0779 22.1758 15.8395 22.3933 16.6596 22.5609C16.6627 22.5616 16.6658 22.5618 16.669 22.5623C16.6722 22.5629 16.6751 22.5638 16.6783 22.5643L17.3352 22.6712C18.3174 22.8284 19.1893 22.6753 19.9999 22.2032L25.2825 19.1263C26.803 18.2407 27.9737 18.1506 28.4138 18.8855C28.7171 19.392 28.5814 20.1817 28.1449 20.4504ZM3.45934 21.2376C3.46939 21.3064 3.4658 21.3764 3.44878 21.4438C3.43175 21.5112 3.40162 21.5745 3.36011 21.6303C3.31859 21.686 3.26651 21.733 3.20682 21.7686C3.14714 21.8042 3.08103 21.8277 3.01227 21.8378C2.94351 21.8478 2.87344 21.8442 2.80606 21.8272C2.73868 21.8102 2.67532 21.7801 2.61959 21.7385C2.56386 21.697 2.51685 21.6449 2.48125 21.5853C2.44565 21.5256 2.42215 21.4595 2.41209 21.3907C2.39338 21.2526 2.42992 21.1126 2.51378 21.0013C2.59764 20.8899 2.72204 20.8162 2.85997 20.796C2.99789 20.7759 3.1382 20.8109 3.25043 20.8936C3.36265 20.9763 3.43772 21.0999 3.45934 21.2376ZM29.5159 3.90357V3.01125C29.5159 2.0826 28.7604 1.32703 27.8318 1.32703H20.1924C19.2637 1.32703 18.5082 2.0826 18.5082 3.01125V3.90357C18.5082 4.38094 18.7082 4.81225 19.0283 5.11904C18.7082 5.42578 18.5082 5.85709 18.5082 6.33445V7.22678C18.5082 7.29357 18.5124 7.36025 18.5204 7.42647C16.0676 7.9807 14.2303 10.1773 14.2303 12.7952C14.2303 15.8301 16.6994 18.2991 19.7342 18.2991C21.7631 18.2991 23.5388 17.1955 24.4933 15.5573H27.8318C28.7604 15.5573 29.5159 14.8018 29.5159 13.8731V12.9807C29.5159 12.5034 29.3159 12.0721 28.9958 11.7653C29.3159 11.4586 29.5159 11.0273 29.5159 10.5499V9.6576C29.5159 9.18023 29.3159 8.74899 28.9958 8.44219C29.3159 8.13545 29.5159 7.70414 29.5159 7.22678V6.33445C29.5159 5.85709 29.3159 5.42584 28.9958 5.11904C29.3159 4.81225 29.5159 4.38094 29.5159 3.90357ZM19.7342 17.3616C17.2163 17.3616 15.1678 15.3131 15.1678 12.7952C15.1678 10.2772 17.2163 8.22879 19.7342 8.22879C22.2522 8.22879 24.3006 10.2772 24.3006 12.7952C24.3006 15.3131 22.2521 17.3616 19.7342 17.3616ZM28.5784 12.9807V13.8731C28.5784 14.2847 28.2434 14.6197 27.8318 14.6197H24.9268C25.1333 14.0336 25.2385 13.4166 25.2381 12.7952C25.2381 12.6058 25.2284 12.4186 25.2096 12.234H27.8317C28.2434 12.234 28.5784 12.569 28.5784 12.9807ZM28.5784 9.65754V10.5499C28.5784 10.9615 28.2434 11.2965 27.8318 11.2965H25.0306C24.7718 10.383 24.2825 9.56549 23.6298 8.91088H27.8318C28.2434 8.91094 28.5784 9.24586 28.5784 9.65754ZM28.5784 6.33439V7.22672C28.5784 7.63846 28.2434 7.97338 27.8318 7.97338H22.3856C21.5987 7.53891 20.6949 7.29123 19.7342 7.29123C19.639 7.29123 19.5441 7.29369 19.45 7.2985C19.4474 7.27465 19.446 7.2507 19.4457 7.22672V6.33439C19.4457 5.92272 19.7807 5.58774 20.1924 5.58774H27.8318C28.2434 5.58774 28.5784 5.92272 28.5784 6.33439ZM20.1924 4.65024C19.7807 4.65024 19.4457 4.31525 19.4457 3.90352V3.01125C19.4457 2.59951 19.7807 2.26453 20.1924 2.26453H27.8318C28.2434 2.26453 28.5784 2.59951 28.5784 3.01125V3.90357C28.5784 4.31531 28.2434 4.65029 27.8318 4.65029L20.1924 4.65024ZM21.806 13.9173C21.8582 14.3473 21.7422 14.7405 21.4707 15.0544C21.1842 15.3856 20.7266 15.6157 20.2029 15.7015V15.9814C20.2029 16.1057 20.1535 16.2249 20.0656 16.3128C19.9777 16.4008 19.8585 16.4501 19.7342 16.4501C19.6098 16.4501 19.4906 16.4008 19.4027 16.3128C19.3148 16.2249 19.2654 16.1057 19.2654 15.9814V15.694C18.4652 15.5414 17.8498 15.0083 17.664 14.2629C17.6346 14.1425 17.6541 14.0154 17.7182 13.9093C17.7823 13.8032 17.8858 13.7268 18.006 13.6968C18.1263 13.6668 18.2536 13.6857 18.36 13.7493C18.4663 13.813 18.5432 13.9161 18.5737 14.0363C18.7189 14.6184 19.319 14.8107 19.7887 14.8006C20.1993 14.7908 20.5811 14.6497 20.7615 14.4411C20.8594 14.3279 20.8955 14.1974 20.8752 14.0303C20.8411 13.7493 20.6724 13.4053 19.6627 13.2396C18.1912 12.9979 17.8476 12.2329 17.8185 11.6336C17.7782 10.8045 18.353 10.1109 19.2487 9.90768L19.2653 9.90399V9.60891C19.2653 9.48459 19.3147 9.36536 19.4026 9.27745C19.4905 9.18954 19.6097 9.14016 19.734 9.14016C19.8584 9.14016 19.9776 9.18954 20.0655 9.27745C20.1534 9.36536 20.2028 9.48459 20.2028 9.60891V9.89982C20.7918 10.0215 21.3564 10.3881 21.6486 11.0841C21.6967 11.1987 21.6974 11.3277 21.6503 11.4428C21.6033 11.5579 21.5125 11.6496 21.3979 11.6977C21.2833 11.7458 21.1542 11.7465 21.0392 11.6994C20.9241 11.6524 20.8324 11.5616 20.7842 11.447C20.5388 10.8627 19.9405 10.7122 19.456 10.8219C19.103 10.902 18.7334 11.1454 18.7548 11.588C18.7622 11.7403 18.7819 12.1448 19.8146 12.3144C21.0311 12.5142 21.701 13.0534 21.806 13.9173ZM9.85414 5.19428H10.757V10.9916C10.757 11.1159 10.8063 11.2352 10.8943 11.3231C10.9822 11.411 11.1014 11.4604 11.2257 11.4604H13.1237C13.2481 11.4604 13.3673 11.411 13.4552 11.3231C13.5431 11.2352 13.5925 11.1159 13.5925 10.9916V5.19428H14.4953C14.58 5.19426 14.663 5.17132 14.7357 5.1279C14.8084 5.08447 14.8679 5.02218 14.908 4.94764C14.9481 4.87309 14.9673 4.78907 14.9635 4.7045C14.9598 4.61993 14.9331 4.53797 14.8865 4.46731L12.566 0.951622C12.5232 0.886943 12.4651 0.83387 12.3969 0.79715C12.3286 0.760431 12.2523 0.741211 12.1748 0.741211C12.0972 0.741211 12.0209 0.760431 11.9526 0.79715C11.8844 0.83387 11.8263 0.886943 11.7835 0.951622L9.46297 4.46731C9.41636 4.53796 9.38974 4.61992 9.38596 4.70449C9.38217 4.78905 9.40135 4.87307 9.44146 4.94761C9.48157 5.02215 9.54111 5.08445 9.61377 5.12788C9.68643 5.1713 9.7695 5.19425 9.85414 5.19428ZM12.1748 2.06074L13.6242 4.25678H13.1237C12.9994 4.25678 12.8802 4.30616 12.7923 4.39407C12.7044 4.48198 12.655 4.60121 12.655 4.72553V10.5229H11.6945V4.72553C11.6945 4.60121 11.6451 4.48198 11.5572 4.39407C11.4693 4.30616 11.35 4.25678 11.2257 4.25678H10.7252L12.1748 2.06074Z" fill="white"/>
</svg>
