<svg width="31" height="31" viewBox="0 0 31 31" fill="none" xmlns="http://www.w3.org/2000/svg">
<path fill-rule="evenodd" clip-rule="evenodd" d="M13.6128 5.00596C13.0184 5.82909 4.24155 20.4466 3.48686 21.4891C3.16324 21.9372 2.96969 22.466 2.92756 23.0172C2.88542 23.5684 2.99634 24.1205 3.24807 24.6126C3.49981 25.1047 3.88258 25.5178 4.35417 25.8061C4.82576 26.0945 5.36783 26.2471 5.92061 26.2469H26.1734C26.7259 26.2464 27.2676 26.0934 27.7387 25.8049C28.2099 25.5164 28.5924 25.1035 28.844 24.6116C29.0956 24.1197 29.2066 23.5679 29.1648 23.017C29.123 22.4661 28.9301 21.9374 28.6072 21.4891C28.3906 21.1919 18.6106 5.18596 18.4812 5.00596C18.2031 4.6205 17.8373 4.3066 17.4141 4.09012C16.9909 3.87363 16.5224 3.76074 16.047 3.76074C15.5717 3.76074 15.1031 3.87363 14.6799 4.09012C14.2567 4.3066 13.891 4.6205 13.6128 5.00596ZM15.1344 6.10284C15.2386 5.95804 15.3757 5.8401 15.5345 5.75875C15.6932 5.6774 15.8691 5.63497 16.0475 5.63497C16.2259 5.63497 16.4017 5.6774 16.5605 5.75875C16.7193 5.8401 16.8564 5.95804 16.9606 6.10284C17.0881 6.28096 26.8719 22.2888 27.0865 22.5869C27.3331 22.9291 27.3678 23.3828 27.1765 23.7588C26.9834 24.1347 26.5953 24.3728 26.1734 24.3728H5.92061C5.49873 24.3728 5.11061 24.1347 4.91748 23.7597C4.82354 23.5748 4.78225 23.3675 4.79812 23.1607C4.81399 22.9539 4.88642 22.7554 5.00748 22.5869C5.76123 21.5435 14.539 6.92503 15.1344 6.10284Z" fill="#FEFDDE"/>
<path fill-rule="evenodd" clip-rule="evenodd" d="M15.0472 9.48242V18.8574C15.0472 19.1061 15.1459 19.3445 15.3218 19.5203C15.4976 19.6962 15.736 19.7949 15.9847 19.7949C16.2333 19.7949 16.4718 19.6962 16.6476 19.5203C16.8234 19.3445 16.9222 19.1061 16.9222 18.8574V9.48242C16.9222 9.23378 16.8234 8.99532 16.6476 8.81951C16.4718 8.64369 16.2333 8.54492 15.9847 8.54492C15.736 8.54492 15.4976 8.64369 15.3218 8.81951C15.1459 8.99532 15.0472 9.23378 15.0472 9.48242Z" fill="#FEFDDE"/>
<path d="M15.9847 22.6074C16.5024 22.6074 16.9222 22.1877 16.9222 21.6699C16.9222 21.1522 16.5024 20.7324 15.9847 20.7324C15.4669 20.7324 15.0472 21.1522 15.0472 21.6699C15.0472 22.1877 15.4669 22.6074 15.9847 22.6074Z" fill="#FEFDDE"/>
</svg>
