<svg width="28" height="24" viewBox="0 0 28 24" fill="none" xmlns="http://www.w3.org/2000/svg">
<path fill-rule="evenodd" clip-rule="evenodd" d="M11.6128 2.00596C11.0184 2.82909 2.24155 17.4466 1.48686 18.4891C1.16324 18.9372 0.969691 19.466 0.927555 20.0172C0.88542 20.5684 0.996338 21.1205 1.24807 21.6126C1.49981 22.1047 1.88258 22.5178 2.35417 22.8061C2.82576 23.0945 3.36783 23.2471 3.92061 23.2469H24.1734C24.7259 23.2464 25.2676 23.0934 25.7387 22.8049C26.2099 22.5164 26.5924 22.1035 26.844 21.6116C27.0956 21.1197 27.2066 20.5679 27.1648 20.017C27.123 19.4661 26.9301 18.9374 26.6072 18.4891C26.3906 18.1919 16.6106 2.18596 16.4812 2.00596C16.2031 1.6205 15.8373 1.3066 15.4141 1.09012C14.9909 0.873631 14.5224 0.760742 14.047 0.760742C13.5717 0.760742 13.1031 0.873631 12.6799 1.09012C12.2567 1.3066 11.891 1.6205 11.6128 2.00596ZM13.1344 3.10284C13.2386 2.95804 13.3757 2.8401 13.5345 2.75875C13.6932 2.6774 13.8691 2.63497 14.0475 2.63497C14.2259 2.63497 14.4017 2.6774 14.5605 2.75875C14.7193 2.8401 14.8564 2.95804 14.9606 3.10284C15.0881 3.28096 24.8719 19.2888 25.0865 19.5869C25.3331 19.9291 25.3678 20.3828 25.1765 20.7588C24.9834 21.1347 24.5953 21.3728 24.1734 21.3728H3.92061C3.49873 21.3728 3.11061 21.1347 2.91748 20.7597C2.82354 20.5748 2.78225 20.3675 2.79812 20.1607C2.81399 19.9539 2.88642 19.7554 3.00748 19.5869C3.76123 18.5435 12.539 3.92503 13.1344 3.10284Z" fill="#154452"/>
<path fill-rule="evenodd" clip-rule="evenodd" d="M13.0472 6.48242V15.8574C13.0472 16.1061 13.1459 16.3445 13.3218 16.5203C13.4976 16.6962 13.736 16.7949 13.9847 16.7949C14.2333 16.7949 14.4718 16.6962 14.6476 16.5203C14.8234 16.3445 14.9222 16.1061 14.9222 15.8574V6.48242C14.9222 6.23378 14.8234 5.99532 14.6476 5.81951C14.4718 5.64369 14.2333 5.54492 13.9847 5.54492C13.736 5.54492 13.4976 5.64369 13.3218 5.81951C13.1459 5.99532 13.0472 6.23378 13.0472 6.48242Z" fill="#154452"/>
<path d="M13.9847 19.6074C14.5024 19.6074 14.9222 19.1877 14.9222 18.6699C14.9222 18.1522 14.5024 17.7324 13.9847 17.7324C13.4669 17.7324 13.0472 18.1522 13.0472 18.6699C13.0472 19.1877 13.4669 19.6074 13.9847 19.6074Z" fill="#154452"/>
</svg>
