<svg width="31" height="25" viewBox="0 0 31 25" fill="none" xmlns="http://www.w3.org/2000/svg">
<path fill-rule="evenodd" clip-rule="evenodd" d="M25.8672 7.9345L25.1548 6.69831C24.5522 5.65231 23.2166 5.29146 22.1691 5.89164V5.89164C21.6705 6.18536 21.0756 6.26869 20.5155 6.12326C19.9554 5.97783 19.4761 5.61559 19.1834 5.11641C18.9951 4.79912 18.8939 4.43773 18.8901 4.06879V4.06879C18.9071 3.47728 18.6839 2.90408 18.2714 2.47976C17.859 2.05545 17.2923 1.81616 16.7005 1.81641H15.2653C14.6856 1.8164 14.1297 2.04741 13.7208 2.45833C13.3118 2.86925 13.0835 3.4262 13.0863 4.00593V4.00593C13.0691 5.20288 12.0938 6.16415 10.8967 6.16403C10.5278 6.16019 10.1664 6.05901 9.84912 5.87069V5.87069C8.80168 5.27051 7.46608 5.63135 6.8634 6.67736L6.09864 7.9345C5.49669 8.9792 5.85263 10.314 6.89483 10.9202V10.9202C7.57228 11.3113 7.98961 12.0342 7.98961 12.8164C7.98961 13.5987 7.57228 14.3215 6.89483 14.7126V14.7126C5.85395 15.3148 5.49763 16.6463 6.09864 17.6878V17.6878L6.8215 18.9345C7.10388 19.444 7.57766 19.82 8.13801 19.9793C8.69836 20.1385 9.29907 20.0679 9.80721 19.7831V19.7831C10.3068 19.4916 10.902 19.4117 11.4607 19.5612C12.0194 19.7108 12.4953 20.0772 12.7825 20.5793C12.9708 20.8966 13.072 21.2579 13.0758 21.6269V21.6269C13.0758 22.8361 14.0561 23.8164 15.2653 23.8164H16.7005C17.9057 23.8164 18.8843 22.8425 18.8901 21.6374V21.6374C18.8873 21.0558 19.117 20.4973 19.5283 20.086C19.9395 19.6748 20.498 19.445 21.0796 19.4478C21.4477 19.4577 21.8076 19.5585 22.1272 19.7412V19.7412C23.1719 20.3431 24.5067 19.9872 25.1129 18.945V18.945L25.8672 17.6878C26.1592 17.1867 26.2393 16.5898 26.0899 16.0294C25.9404 15.469 25.5737 14.9913 25.071 14.7021V14.7021C24.5683 14.4129 24.2016 13.9352 24.0522 13.3748C23.9027 12.8144 23.9829 12.2175 24.2748 11.7164C24.4647 11.3849 24.7395 11.1101 25.071 10.9202V10.9202C26.107 10.3143 26.4621 8.98733 25.8672 7.94498V7.94498V7.9345Z" stroke="white" stroke-width="2" stroke-linecap="round" stroke-linejoin="round"/>
<circle cx="15.9882" cy="12.816" r="3.01714" stroke="white" stroke-width="2" stroke-linecap="round" stroke-linejoin="round"/>
</svg>
