<svg width="31" height="23" viewBox="0 0 31 23" fill="none" xmlns="http://www.w3.org/2000/svg">
<path d="M22.9929 18.98H8.99308C8.72787 18.98 8.47352 18.8747 8.28598 18.6871C8.09845 18.4996 7.99309 18.2453 7.99309 17.98C7.99309 17.7148 8.09845 17.4605 8.28598 17.2729C8.47352 17.0854 8.72787 16.9801 8.99308 16.9801H22.9929C23.2582 16.9801 23.5125 17.0854 23.7 17.2729C23.8876 17.4605 23.9929 17.7148 23.9929 17.98C23.9929 18.2453 23.8876 18.4996 23.7 18.6871C23.5125 18.8747 23.2582 18.98 22.9929 18.98ZM12.344 11.3186C12.1421 11.3186 11.9376 11.2576 11.7611 11.1301L5.40912 6.55966C5.29959 6.48417 5.20623 6.38757 5.13449 6.27554C5.06276 6.16351 5.0141 6.03829 4.99137 5.90722C4.96863 5.77615 4.97228 5.64186 5.00209 5.51222C5.0319 5.38257 5.08728 5.26018 5.16498 5.1522C5.24269 5.04423 5.34116 4.95284 5.45462 4.8834C5.56808 4.81395 5.69426 4.76785 5.82577 4.74778C5.95727 4.7277 6.09146 4.73407 6.22047 4.76651C6.34949 4.79895 6.47073 4.8568 6.57711 4.93668L12.929 9.50713C13.1008 9.63078 13.2288 9.8057 13.2948 10.0067C13.3608 10.2078 13.3613 10.4246 13.2963 10.6259C13.2313 10.8273 13.1041 11.0028 12.9329 11.1273C12.7618 11.2518 12.5556 11.3188 12.344 11.3186ZM19.642 11.3186C19.4304 11.3188 19.2242 11.2518 19.0531 11.1273C18.882 11.0028 18.7548 10.8273 18.6897 10.6259C18.6247 10.4246 18.6252 10.2078 18.6912 10.0067C18.7572 9.8057 18.8853 9.63078 19.057 9.50713L25.4089 4.93668C25.6244 4.78816 25.8895 4.73002 26.1473 4.77475C26.4052 4.81947 26.6352 4.9635 26.7881 5.17591C26.941 5.38832 27.0045 5.6522 26.965 5.9109C26.9255 6.1696 26.7862 6.40252 26.5769 6.55966L20.225 11.1301C20.0553 11.2528 19.8513 11.3187 19.642 11.3186Z" fill="white"/>
<path d="M12.3445 11.3196C12.1783 11.3198 12.0146 11.2785 11.8684 11.1994C11.7221 11.1204 11.5979 11.0061 11.507 10.8669C11.4161 10.7278 11.3614 10.5681 11.3477 10.4024C11.3341 10.2367 11.3621 10.0703 11.4291 9.9181L15.077 1.57969C15.1296 1.45932 15.2054 1.35049 15.3 1.25944C15.3947 1.16839 15.5064 1.09691 15.6287 1.04907C15.751 1.00124 15.8816 0.977997 16.0129 0.980677C16.1442 0.983357 16.2737 1.01191 16.394 1.06469C16.5144 1.11725 16.6232 1.19304 16.7142 1.2877C16.8053 1.38237 16.8768 1.49406 16.9246 1.61639C16.9725 1.73871 16.9957 1.86927 16.993 2.00059C16.9903 2.13191 16.9618 2.26141 16.909 2.38168L13.261 10.7201C13.1831 10.8983 13.0549 11.05 12.8922 11.1565C12.7294 11.2629 12.5391 11.3196 12.3445 11.3196Z" fill="white"/>
<path d="M19.6415 11.3191C19.447 11.3192 19.2567 11.2625 19.0939 11.156C18.9311 11.0495 18.8029 10.8979 18.725 10.7197L15.077 2.38124C14.9744 2.13894 14.9714 1.86595 15.0687 1.62146C15.166 1.37696 15.3557 1.18067 15.5968 1.07514C15.8378 0.969617 16.1108 0.963357 16.3564 1.05772C16.6021 1.15209 16.8006 1.33947 16.909 1.57925L20.557 9.91766C20.6237 10.0698 20.6514 10.2362 20.6377 10.4018C20.624 10.5674 20.5692 10.7269 20.4783 10.866C20.3875 11.0051 20.2634 11.1194 20.1173 11.1985C19.9711 11.2776 19.8076 11.3191 19.6415 11.3191ZM8.99209 18.9801C8.54259 18.9801 8.13359 18.6751 8.0221 18.2186L5.02213 5.98671C4.99084 5.85916 4.98498 5.7267 5.00488 5.59689C5.02479 5.46708 5.07006 5.34247 5.13813 5.23015C5.20619 5.11784 5.29571 5.02004 5.40158 4.94232C5.50744 4.86461 5.62757 4.8085 5.75512 4.77722C6.01271 4.71403 6.28485 4.75576 6.51167 4.89322C6.73849 5.03068 6.90142 5.25262 6.96461 5.51021L9.96458 17.7421C10.0007 17.8894 10.0028 18.043 9.97076 18.1913C9.93873 18.3395 9.87339 18.4785 9.7797 18.5978C9.686 18.7171 9.5664 18.8135 9.42995 18.8797C9.29349 18.9459 9.14376 18.9803 8.99209 18.9801ZM22.9939 18.9801C22.8422 18.9803 22.6924 18.946 22.5559 18.8797C22.4194 18.8134 22.2998 18.717 22.2061 18.5977C22.1124 18.4783 22.0471 18.3392 22.0151 18.1909C21.9831 18.0426 21.9853 17.8889 22.0215 17.7416L25.0214 5.50971C25.0846 5.25212 25.2475 5.03018 25.4744 4.89272C25.7012 4.75526 25.9733 4.71353 26.2309 4.77672C26.4885 4.8399 26.7104 5.00283 26.8479 5.22965C26.9854 5.45648 27.0271 5.72862 26.9639 5.98621L23.9639 18.2181C23.9107 18.4353 23.7863 18.6283 23.6104 18.7664C23.4346 18.9046 23.2175 18.9798 22.9939 18.9801ZM22.9929 22.98H8.99309C8.72787 22.98 8.47352 22.8747 8.28599 22.6871C8.09845 22.4996 7.9931 22.2453 7.9931 21.98C7.9931 21.7148 8.09845 21.4605 8.28599 21.2729C8.47352 21.0854 8.72787 20.9801 8.99309 20.9801H22.9929C23.2582 20.9801 23.5125 21.0854 23.7 21.2729C23.8876 21.4605 23.9929 21.7148 23.9929 21.98C23.9929 22.2453 23.8876 22.4996 23.7 22.6871C23.5125 22.8747 23.2582 22.98 22.9929 22.98Z" fill="white"/>
</svg>
