<svg width="31" height="23" viewBox="0 0 31 23" fill="none" xmlns="http://www.w3.org/2000/svg">
<path d="M22.9929 18.981H8.99308C8.72787 18.981 8.47352 18.8757 8.28598 18.6881C8.09845 18.5006 7.99309 18.2462 7.99309 17.981C7.99309 17.7158 8.09845 17.4615 8.28598 17.2739C8.47352 17.0864 8.72787 16.981 8.99308 16.981H22.9929C23.2582 16.981 23.5125 17.0864 23.7 17.2739C23.8876 17.4615 23.9929 17.7158 23.9929 17.981C23.9929 18.2462 23.8876 18.5006 23.7 18.6881C23.5125 18.8757 23.2582 18.981 22.9929 18.981ZM12.344 11.3196C12.1421 11.3196 11.9376 11.2586 11.7611 11.1311L5.40912 6.56064C5.29959 6.48514 5.20623 6.38855 5.13449 6.27652C5.06276 6.16449 5.0141 6.03927 4.99137 5.9082C4.96863 5.77713 4.97228 5.64284 5.00209 5.51319C5.0319 5.38355 5.08728 5.26115 5.16498 5.15318C5.24269 5.04521 5.34116 4.95382 5.45462 4.88438C5.56808 4.81493 5.69426 4.76882 5.82577 4.74875C5.95727 4.72868 6.09146 4.73505 6.22047 4.76749C6.34949 4.79992 6.47073 4.85778 6.57711 4.93766L12.929 9.50811C13.1008 9.63175 13.2288 9.80668 13.2948 10.0077C13.3608 10.2088 13.3613 10.4256 13.2963 10.6269C13.2313 10.8283 13.1041 11.0038 12.9329 11.1283C12.7618 11.2527 12.5556 11.3197 12.344 11.3196ZM19.642 11.3196C19.4304 11.3197 19.2242 11.2527 19.0531 11.1283C18.882 11.0038 18.7548 10.8283 18.6897 10.6269C18.6247 10.4256 18.6252 10.2088 18.6912 10.0077C18.7572 9.80668 18.8853 9.63175 19.057 9.50811L25.4089 4.93766C25.6244 4.78913 25.8895 4.731 26.1473 4.77572C26.4052 4.82045 26.6352 4.96447 26.7881 5.17689C26.941 5.3893 27.0045 5.65317 26.965 5.91188C26.9255 6.17058 26.7862 6.4035 26.5769 6.56064L20.225 11.1311C20.0553 11.2537 19.8513 11.3197 19.642 11.3196Z" fill="black"/>
<path d="M12.3445 11.3201C12.1783 11.3203 12.0146 11.279 11.8684 11.1999C11.7221 11.1209 11.5979 11.0066 11.507 10.8674C11.4161 10.7282 11.3614 10.5686 11.3477 10.4029C11.3341 10.2372 11.3621 10.0707 11.4291 9.91859L15.077 1.58017C15.1296 1.4598 15.2054 1.35098 15.3 1.25993C15.3947 1.16888 15.5064 1.0974 15.6287 1.04956C15.751 1.00173 15.8816 0.978485 16.0129 0.981165C16.1442 0.983845 16.2737 1.01239 16.394 1.06518C16.5144 1.11774 16.6232 1.19352 16.7142 1.28819C16.8053 1.38286 16.8768 1.49455 16.9246 1.61687C16.9725 1.7392 16.9957 1.86976 16.993 2.00108C16.9903 2.13239 16.9618 2.26189 16.909 2.38217L13.261 10.7206C13.1831 10.8988 13.0549 11.0505 12.8922 11.1569C12.7294 11.2634 12.5391 11.3201 12.3445 11.3201Z" fill="black"/>
<path d="M19.6415 11.3201C19.447 11.3202 19.2567 11.2635 19.0939 11.157C18.9311 11.0505 18.8029 10.8989 18.725 10.7206L15.077 2.38222C14.9744 2.13992 14.9714 1.86693 15.0687 1.62243C15.166 1.37794 15.3557 1.18165 15.5968 1.07612C15.8378 0.970594 16.1108 0.964334 16.3564 1.0587C16.6021 1.15307 16.8006 1.34045 16.909 1.58023L20.557 9.91864C20.6237 10.0708 20.6514 10.2372 20.6377 10.4028C20.624 10.5684 20.5692 10.7279 20.4783 10.867C20.3875 11.0061 20.2634 11.1204 20.1173 11.1995C19.9711 11.2786 19.8076 11.3201 19.6415 11.3201ZM8.99209 18.981C8.54259 18.981 8.13359 18.6761 8.0221 18.2196L5.02213 5.98768C4.99084 5.86014 4.98498 5.72768 5.00488 5.59787C5.02479 5.46806 5.07006 5.34344 5.13813 5.23113C5.20619 5.11882 5.29571 5.02101 5.40158 4.9433C5.50744 4.86558 5.62757 4.80948 5.75512 4.77819C6.01271 4.71501 6.28485 4.75673 6.51167 4.8942C6.73849 5.03166 6.90142 5.2536 6.96461 5.51119L9.96458 17.7431C10.0007 17.8904 10.0028 18.044 9.97076 18.1922C9.93873 18.3405 9.87339 18.4795 9.7797 18.5988C9.686 18.7181 9.5664 18.8145 9.42995 18.8807C9.29349 18.9469 9.14376 18.9812 8.99209 18.981ZM22.9939 18.981C22.8422 18.9813 22.6924 18.9469 22.5559 18.8807C22.4194 18.8144 22.2998 18.718 22.2061 18.5986C22.1124 18.4793 22.0471 18.3402 22.0151 18.1919C21.9831 18.0436 21.9853 17.8899 22.0215 17.7426L25.0214 5.51069C25.0846 5.2531 25.2475 5.03116 25.4744 4.8937C25.7012 4.75623 25.9733 4.71451 26.2309 4.77769C26.4885 4.84088 26.7104 5.00381 26.8479 5.23063C26.9854 5.45745 27.0271 5.72959 26.9639 5.98718L23.9639 18.2191C23.9107 18.4362 23.7863 18.6293 23.6104 18.7674C23.4346 18.9056 23.2175 18.9808 22.9939 18.981ZM22.9929 22.981H8.99309C8.72787 22.981 8.47352 22.8757 8.28599 22.6881C8.09845 22.5006 7.9931 22.2462 7.9931 21.981C7.9931 21.7158 8.09845 21.4615 8.28599 21.2739C8.47352 21.0864 8.72787 20.981 8.99309 20.981H22.9929C23.2582 20.981 23.5125 21.0864 23.7 21.2739C23.8876 21.4615 23.9929 21.7158 23.9929 21.981C23.9929 22.2462 23.8876 22.5006 23.7 22.6881C23.5125 22.8757 23.2582 22.981 22.9929 22.981Z" fill="black"/>
</svg>
