<svg width="31" height="31" viewBox="0 0 31 31" fill="none" xmlns="http://www.w3.org/2000/svg">
<g clip-path="url(#clip0_1068_1472)">
<path d="M24.7347 18.0635C27.496 18.0635 29.7347 20.5635 29.7347 22.4385C29.7347 23.474 28.8952 24.3135 27.8597 24.3135H27.2347M22.2347 14.3135C24.3058 14.3135 25.9847 12.6345 25.9847 10.5635C25.9847 8.49241 24.3058 6.81348 22.2347 6.81348M7.23467 18.0635C4.47325 18.0635 2.23467 20.5635 2.23467 22.4385C2.23467 23.474 3.07414 24.3135 4.10967 24.3135H4.73467M9.73467 14.3135C7.66361 14.3135 5.98467 12.6345 5.98467 10.5635C5.98467 8.49241 7.66361 6.81348 9.73467 6.81348M21.6097 24.3135H10.3597C9.32414 24.3135 8.48467 23.474 8.48467 22.4385C8.48467 19.3135 12.2347 18.0635 15.9847 18.0635C19.7347 18.0635 23.4847 19.3135 23.4847 22.4385C23.4847 23.474 22.6452 24.3135 21.6097 24.3135ZM19.7347 10.5635C19.7347 12.6345 18.0558 14.3135 15.9847 14.3135C13.9135 14.3135 12.2347 12.6345 12.2347 10.5635C12.2347 8.49241 13.9135 6.81348 15.9847 6.81348C18.0558 6.81348 19.7347 8.49241 19.7347 10.5635Z" stroke="white" stroke-width="2" stroke-linecap="round" stroke-linejoin="round"/>
</g>
<defs>
<clipPath id="clip0_1068_1472">
<rect width="30" height="30" fill="white" transform="translate(0.984673 0.563477)"/>
</clipPath>
</defs>
</svg>
