<svg width="31" height="31" viewBox="0 0 31 31" fill="none" xmlns="http://www.w3.org/2000/svg">
<g clip-path="url(#clip0_118_1832)">
<path d="M24.7347 18.0632C27.496 18.0632 29.7347 20.5632 29.7347 22.4382C29.7347 23.4737 28.8952 24.3132 27.8597 24.3132H27.2347M22.2347 14.3132C24.3058 14.3132 25.9847 12.6343 25.9847 10.5632C25.9847 8.49217 24.3058 6.81323 22.2347 6.81323M7.23467 18.0632C4.47325 18.0632 2.23467 20.5632 2.23467 22.4382C2.23467 23.4737 3.07414 24.3132 4.10967 24.3132H4.73467M9.73467 14.3132C7.66361 14.3132 5.98467 12.6343 5.98467 10.5632C5.98467 8.49217 7.66361 6.81323 9.73467 6.81323M21.6097 24.3132H10.3597C9.32414 24.3132 8.48467 23.4737 8.48467 22.4382C8.48467 19.3132 12.2347 18.0632 15.9847 18.0632C19.7347 18.0632 23.4847 19.3132 23.4847 22.4382C23.4847 23.4737 22.6452 24.3132 21.6097 24.3132ZM19.7347 10.5632C19.7347 12.6343 18.0558 14.3132 15.9847 14.3132C13.9135 14.3132 12.2347 12.6343 12.2347 10.5632C12.2347 8.49217 13.9135 6.81323 15.9847 6.81323C18.0558 6.81323 19.7347 8.49217 19.7347 10.5632Z" stroke="#154452" stroke-width="2" stroke-linecap="round" stroke-linejoin="round"/>
</g>
<defs>
<clipPath id="clip0_118_1832">
<rect width="30" height="30" fill="white" transform="translate(0.984673 0.563232)"/>
</clipPath>
</defs>
</svg>
