<svg xmlns="http://www.w3.org/2000/svg" fill="none" viewBox="38.29 41.94 131.76 111.18">
<path d="M113.547 139.665C100.313 139.66 87.1802 139.657 74.0476 139.644C73.4419 139.643 72.8208 139.625 72.234 139.493C71.2485 139.272 70.6262 138.354 70.6205 137.194C70.6075 134.554 70.616 131.914 70.6158 129.274C70.6147 107.51 70.6241 85.7463 70.5899 63.9827C70.5874 62.4426 71.178 61.5385 72.5468 60.915C81.5344 56.8212 90.5058 52.6918 99.4822 48.5733C103.971 46.5139 108.499 44.5364 112.93 42.3591C115.312 41.1885 116.194 42.655 116.183 44.4493C116.159 48.2041 116.174 51.9592 116.17 55.7141C116.168 57.2345 116.252 58.7628 116.121 60.2723C116.035 61.2623 116.388 61.3918 117.233 61.3874C122.818 61.3583 128.402 61.3716 133.987 61.3712C134.292 61.3711 134.596 61.3708 134.901 61.3712C137.124 61.3742 137.972 62.2034 137.97 64.4202C137.958 77.9589 137.935 91.4976 137.925 105.036C137.917 115.292 137.923 125.548 137.921 135.803C137.921 136.243 137.933 136.686 137.885 137.121C137.696 138.828 136.777 139.661 135.073 139.663C130.673 139.669 126.273 139.664 121.873 139.663C119.132 139.663 116.39 139.664 113.547 139.665ZM112.633 65.1656C100.449 65.1643 88.2644 65.1621 76.0801 65.163C74.6882 65.1631 74.6211 65.2342 74.6138 66.5678C74.5543 77.5662 74.5875 88.5644 74.4581 99.5633C74.3215 111.171 74.4311 122.781 74.3944 134.39C74.3912 135.395 74.6403 135.73 75.6912 135.728C94.6445 135.699 113.598 135.7 132.551 135.727C133.538 135.728 133.811 135.425 133.81 134.457C133.8 111.815 133.818 89.1725 133.828 66.5301C133.829 65.2304 133.766 65.1729 132.432 65.1719C125.9 65.1674 119.368 65.1673 112.633 65.1656ZM111.857 47.3532C101.921 51.9296 91.9839 56.5059 81.9259 61.1382C82.5657 61.4263 83.0724 61.366 83.5669 61.3664C92.5325 61.3733 101.498 61.3756 110.464 61.3788C110.87 61.3789 111.276 61.3628 111.682 61.3808C112.234 61.4053 112.484 61.1711 112.483 60.6067C112.473 56.3438 112.475 52.081 112.472 47.8181C112.472 47.4969 112.477 47.1644 111.857 47.3532Z" fill="#154452"/>
<path d="M49.8062 42.5064C51.8724 42.1201 53.8724 42.2905 55.8632 42.2825C61.2423 42.2608 66.6215 42.2732 72.0007 42.2765C73.8108 42.2776 74.6303 43.0809 74.6357 44.8386C74.6409 46.5314 73.7337 47.4564 71.9839 47.4583C65.556 47.4651 59.1281 47.4417 52.7003 47.4504C48.379 47.4563 44.7326 50.155 43.6825 54.1069C43.4574 54.9541 43.3301 55.82 43.3311 56.7076C43.337 62.2898 43.3322 67.8719 43.3175 73.4541C43.3134 74.9987 42.7262 76.0058 41.7029 76.3322C40.0395 76.8629 38.4167 75.6253 38.3472 73.7121C38.2931 72.2254 38.3273 70.7353 38.326 69.2468C38.3227 65.2209 38.4165 61.1922 38.2989 57.1696C38.0795 49.6626 42.9311 43.8306 49.8062 42.5064Z" fill="#E2824D"/>
<path d="M38.3367 135.172C38.334 130.774 38.3277 126.477 38.329 122.181C38.3297 120.292 39.0917 119.465 40.8058 119.465C42.5023 119.465 43.3258 120.338 43.3273 122.166C43.3322 128.019 43.3198 133.872 43.3339 139.725C43.3448 144.264 47.2308 148.113 51.7758 148.114C58.5082 148.115 65.2406 148.109 71.9731 148.116C73.7897 148.118 74.7498 149.077 74.6785 150.772C74.6183 152.206 73.6817 153.102 72.1624 153.11C69.0838 153.127 66.0051 153.114 62.9265 153.114C59.2727 153.115 55.6188 153.127 51.9651 153.114C44.871 153.09 39.3884 148.185 38.497 141.147C38.2486 139.187 38.4034 137.231 38.3367 135.172Z" fill="#EABB48"/>
<path d="M169.875 74.7999C169.201 76.2409 168.457 76.5981 166.889 76.3088C165.942 76.1341 165.383 75.4295 165.241 74.1633C164.999 72.0057 165.132 69.838 165.112 67.6752C165.076 63.7849 165.104 59.894 165.075 56.0036C165.046 52.2058 162.009 48.4454 158.329 47.6013C157.362 47.3797 156.376 47.441 155.399 47.4308C149.956 47.3742 144.512 47.3387 139.069 47.3064C138.056 47.3004 137.047 47.4547 136.03 47.3398C134.687 47.1882 133.78 46.1678 133.808 44.7936C133.837 43.3288 134.772 42.2906 136.182 42.2874C143.219 42.2715 150.264 42.0737 157.291 42.3483C163.322 42.584 167.899 47.0409 169.462 52.6602C169.753 53.7061 169.896 54.766 169.891 55.8598C169.871 59.9533 169.875 64.047 169.9 68.1405C169.91 69.7966 169.996 71.4522 170.047 73.1081C170.063 73.6508 170.046 74.1906 169.875 74.7999Z" fill="#52A4AB"/>
<path d="M133.844 150.941C133.929 148.967 134.829 148.146 136.859 148.14C141.325 148.126 145.792 148.122 150.258 148.122C152.322 148.122 154.386 148.128 156.449 148.151C160.752 148.199 165.029 144.083 165.066 139.778C165.114 134.229 165.105 128.68 165.127 123.131C165.129 122.659 165.141 122.181 165.207 121.715C165.468 119.877 167.206 119 168.846 119.88C169.481 120.221 169.859 120.751 169.895 121.503C169.942 122.481 169.929 123.457 169.923 124.436C169.891 129.07 169.717 133.709 169.988 138.338C170.454 146.308 164.97 151.747 159.258 152.781C158.293 152.955 157.328 153.11 156.344 153.11C149.78 153.112 143.216 153.118 136.652 153.115C135.03 153.114 134.357 152.596 133.844 150.941Z" fill="#7EAB74"/>
<path d="M95.7938 97.6515C95.4733 95.6986 95.7015 93.8031 95.6029 91.9152C95.5725 91.3333 95.7668 90.4553 94.9668 90.4262C94.0618 90.3932 94.1068 91.2766 94.1051 91.9628C94.1013 93.4858 94.0997 95.0089 94.0875 96.5319C94.0822 97.1959 94.0812 97.8681 93.1237 97.8653C92.1368 97.8624 92.1947 97.1283 92.1995 96.5035C92.2111 95.0156 92.2878 93.5282 92.3221 92.0402C92.3366 91.4114 92.4766 90.665 91.6157 90.4739C91.0331 90.3445 90.4595 91.1009 90.479 91.9844C90.5334 94.4491 90.2617 96.9207 90.6271 99.3787C90.8578 100.93 91.6731 102.141 92.8498 103.13C93.1923 103.417 93.509 103.677 93.5135 104.195C93.5443 107.81 93.3025 111.411 93.0812 114.975C92.6787 115.16 92.4833 114.933 92.2927 114.757C88.1534 110.948 84.3291 106.832 82.2179 101.547C79.9611 95.8978 80.0522 90.3059 84.3194 85.4799C87.1285 82.303 90.8999 81.4299 95.0188 81.751C98.0934 81.9907 100.649 83.3409 102.86 85.3983C103.436 85.9347 103.79 85.9271 104.362 85.4001C107.177 82.8037 110.515 81.5097 114.352 81.6984C120.767 82.014 125.468 87.0956 126.025 92.8992C126.592 98.8104 124.729 103.853 120.978 108.343C118.716 111.051 116.296 113.593 113.642 115.914C113.373 116.149 113.153 116.494 112.654 116.462C112.337 116.076 112.474 115.585 112.473 115.139C112.464 107.524 112.466 99.9086 112.466 92.2933C112.466 92.0225 112.458 91.7516 112.465 91.481C112.478 90.9875 112.435 90.517 111.919 90.2718C111.393 90.0215 110.981 90.3354 110.637 90.6418C109.957 91.2493 109.309 91.8968 108.682 92.5596C106.654 94.7008 104.667 96.8719 103.555 99.6775C101.738 104.261 102.972 108.027 107.197 110.538C108.037 111.037 108.427 111.552 108.373 112.602C108.26 114.796 108.323 117 108.349 119.2C108.355 119.766 108.177 120.157 107.721 120.487C106.789 121.161 105.87 121.856 104.969 122.57C104.153 123.217 103.347 123.178 102.551 122.587C100.813 121.296 99.0928 119.98 97.3553 118.688C97.0023 118.425 96.8577 118.111 96.784 117.677C96.4937 115.967 96.6282 114.236 96.4763 112.516C96.2357 109.791 96.2168 107.047 96.0843 104.312C96.0632 103.877 96.2694 103.628 96.5695 103.378C98.3118 101.924 99.2139 100.127 99.0774 97.7881C98.9653 95.8653 99.05 93.931 99.0467 92.0018C99.0464 91.7988 99.0701 91.5899 99.0311 91.394C98.9357 90.9155 98.7731 90.3854 98.1996 90.4036C97.5967 90.4228 97.3674 90.9163 97.3655 91.4832C97.36 93.1755 97.3681 94.8678 97.3637 96.5601C97.3603 97.8703 97.1622 98.019 95.7938 97.6515Z" fill="#E27B4F"/>
<rect x="84" y="128.5" width="40" height="4" rx="2" fill="#154452"/>
<path d="M105.389 79.4795C104.274 80.6982 103.723 82.1522 103.199 83.5504C103.02 83.5504 102.928 83.5792 102.89 83.5462C100.869 81.7957 98.4807 80.9531 95.8966 80.3408C92.4352 79.5207 90.6755 76.9454 89.954 73.5913C89.8045 72.8963 89.908 72.2824 90.8159 72.2161C93.4582 72.0231 95.9935 72.2106 98.2635 73.8445C99.9348 75.0475 100.754 76.723 101.331 78.7421C101.907 77.8511 102.397 77.0195 103.085 76.3371C103.695 75.7321 104.383 75.2644 105.177 74.9399C105.993 74.6065 106.561 74.9987 107.02 75.5917C107.485 76.1931 107.696 76.851 107.108 77.521C106.551 78.1558 105.992 78.7891 105.389 79.4795Z" fill="#669A59"/>
</svg>